<?xml version="1.0" standalone="no"?>
<!DOCTYPE svg PUBLIC "-//W3C//DTD SVG 20010904//EN"
 "http://www.w3.org/TR/2001/REC-SVG-20010904/DTD/svg10.dtd">
<svg version="1.0" xmlns="http://www.w3.org/2000/svg"
 width="1280.000000pt" height="522.000000pt" viewBox="0 0 1280.000000 522.000000"
 preserveAspectRatio="xMidYMid meet">

<g transform="translate(0.000000,522.000000) scale(0.100000,-0.100000)"
fill="#000000" stroke="none">
<path d="M810 5208 c-57 -30 -97 -145 -67 -192 18 -27 -2 -18 995 -432 l624
-259 -119 -7 c-142 -9 -255 -30 -360 -65 -427 -143 -746 -503 -839 -948 -22
-107 -22 -320 0 -445 19 -109 72 -272 114 -357 137 -269 427 -513 718 -603 38
-12 78 -25 89 -30 11 -4 -205 -11 -480 -15 -1310 -19 -1399 -21 -1427 -35 -38
-18 -62 -73 -55 -125 9 -59 25 -91 55 -104 19 -9 403 -11 1566 -6 2044 8 5173
23 6341 31 l940 7 595 -243 c327 -133 714 -291 860 -350 1902 -770 2031 -820
2120 -820 73 0 117 62 127 180 5 61 4 68 -22 98 -37 44 -43 47 -480 222 -625
250 -2145 861 -2212 888 -35 14 -63 28 -63 31 0 3 51 5 113 5 106 -2 886 7
1872 21 490 7 831 20 887 36 80 21 110 84 87 183 -16 75 -42 114 -87 133 -40
17 -64 17 -2647 -24 l-1081 -17 -679 273 c-1131 454 -1821 731 -2430 976 -319
128 -933 375 -1365 548 -978 393 -2343 940 -3060 1228 -300 121 -558 221 -575
224 -16 3 -41 0 -55 -7z m1650 -992 c447 -72 810 -392 935 -822 75 -257 56
-554 -50 -795 -183 -417 -602 -690 -1060 -692 -147 -1 -241 13 -367 54 -400
130 -693 457 -784 874 -9 39 -18 122 -21 185 -26 579 394 1098 968 1194 110
18 273 19 379 2z m815 -269 c300 -125 1911 -793 2310 -957 77 -32 311 -129
520 -215 209 -86 427 -176 485 -200 58 -24 238 -98 400 -165 162 -67 472 -194
688 -283 215 -89 392 -165 392 -169 0 -5 -75 -8 -167 -8 -93 0 -760 -9 -1483
-20 -723 -11 -1774 -26 -2335 -34 -561 -9 -1128 -18 -1259 -21 -132 -3 -238
-3 -235 -1 2 2 39 16 82 30 371 124 672 432 787 805 95 307 75 611 -59 905
-43 94 -146 247 -220 326 -63 67 -70 76 -48 67 6 -3 71 -30 142 -60z"/>
<path d="M2216 3924 c-137 -33 -273 -141 -413 -325 l-51 -68 62 -123 c71 -142
185 -388 246 -533 99 -234 205 -540 191 -550 -17 -10 -49 28 -60 72 -38 147
-203 549 -370 897 -66 137 -79 171 -70 187 9 18 8 19 -11 7 -47 -28 -188 -308
-276 -545 l-25 -68 93 -88 c124 -118 270 -235 398 -320 113 -75 252 -147 283
-147 11 0 35 -9 53 -20 48 -30 185 -54 269 -47 132 12 256 72 328 159 46 56
84 140 92 198 5 41 4 40 -10 -13 -8 -32 -22 -70 -30 -85 -9 -15 -14 -20 -11
-12 35 109 38 127 34 219 -6 116 -31 189 -88 254 -42 48 -54 73 -20 42 52 -47
109 -161 123 -245 l4 -25 2 26 c1 34 -26 114 -57 164 -33 54 -93 116 -105 108
-6 -3 -7 -1 -4 4 9 14 -40 46 -55 37 -6 -4 -8 -3 -4 4 3 6 -11 20 -34 33 -22
13 -40 26 -40 30 0 5 18 34 40 65 39 56 50 81 30 69 -5 -3 0 20 12 52 45 128
20 306 -59 410 -19 25 -32 47 -29 50 4 4 28 -26 74 -93 7 -11 5 -4 -4 15 -9
19 -37 56 -62 83 -110 118 -276 163 -446 122z m69 -122 c137 -103 194 -151
307 -260 116 -113 159 -169 137 -183 -22 -13 -24 -12 -54 32 -53 75 -316 307
-487 429 -52 36 -54 40 -36 58 14 14 10 16 133 -76z m356 12 c9 -11 2 -9 -18
6 -18 13 -33 25 -33 27 0 8 38 -17 51 -33z m-533 -332 c104 -109 211 -222 237
-252 26 -30 52 -59 59 -65 29 -25 190 -222 277 -338 104 -138 203 -305 197
-334 -8 -42 -34 -20 -76 65 -51 105 -207 325 -314 442 -13 14 -52 59 -87 100
-35 41 -71 82 -80 90 -9 9 -38 40 -65 70 -27 30 -122 129 -211 220 -151 153
-181 190 -169 203 16 15 61 -24 232 -201z"/>
<path d="M2741 3680 c0 -3 8 -32 19 -65 12 -33 18 -46 16 -29 -5 29 -33 106
-35 94z"/>
<path d="M2782 3493 c-1 -33 -11 -90 -22 -125 -23 -74 -24 -82 -6 -48 22 40
38 131 34 185 -4 49 -4 49 -6 -12z"/>
<path d="M2963 2700 c0 -25 2 -35 4 -22 2 12 2 32 0 45 -2 12 -4 2 -4 -23z"/>
<path d="M8260 1343 c-27 -10 -71 -57 -92 -98 -34 -65 -34 -140 2 -393 42
-296 47 -282 -91 -282 l-101 0 8 43 c11 62 8 223 -6 324 -23 174 -58 253 -112
253 -38 0 -93 -45 -117 -96 -30 -62 -28 -127 8 -339 15 -93 26 -173 24 -178
-2 -4 -49 -7 -104 -7 l-99 0 0 33 c0 66 -59 563 -71 597 -17 49 -38 70 -71 70
-81 0 -139 -61 -157 -166 -12 -65 -9 -90 33 -262 14 -57 30 -147 36 -200 10
-95 10 -99 -20 -182 -46 -130 -38 -226 20 -250 26 -11 37 -9 94 18 35 16 78
33 95 37 18 4 179 1 360 -5 357 -13 387 -10 450 37 19 15 45 51 60 82 23 49
26 69 26 161 0 150 -36 678 -49 724 -16 55 -81 96 -126 79z"/>
<path d="M8805 1293 c-52 -13 -56 -65 -25 -353 10 -102 26 -252 35 -335 18
-180 34 -234 81 -275 82 -71 161 -19 184 122 8 55 7 89 -10 195 -10 70 -34
225 -51 343 -33 221 -43 260 -82 284 -24 16 -101 27 -132 19z"/>
<path d="M6922 1219 c-66 -26 -174 -154 -237 -280 -21 -41 -39 -76 -41 -78 -5
-6 -102 77 -228 197 l-120 114 -99 -4 c-89 -3 -101 -5 -117 -26 -18 -22 -18
-24 -1 -65 14 -33 45 -64 152 -150 74 -59 180 -140 237 -179 114 -79 109 -66
65 -173 -163 -395 -159 -575 12 -575 56 0 85 14 85 41 0 11 25 87 56 167 31
81 56 159 56 174 -1 16 4 28 9 28 5 0 18 20 29 45 21 48 32 53 75 31 48 -25
120 18 108 65 -3 10 -23 35 -45 55 -28 25 -37 39 -30 46 6 6 8 24 5 39 -4 21
5 47 40 106 24 43 57 102 71 131 15 30 54 83 87 118 32 35 59 68 59 73 0 27
-22 60 -57 84 -31 22 -50 27 -94 26 -29 0 -65 -4 -77 -10z"/>
<path d="M1775 1176 c-16 -7 -38 -22 -47 -32 -9 -11 -53 -107 -97 -214 -159
-389 -170 -409 -238 -430 -45 -15 -70 -35 -89 -73 -14 -25 -13 -30 5 -55 32
-46 34 -72 8 -124 -42 -83 -11 -132 84 -132 62 0 84 20 149 134 77 135 82 137
318 183 99 20 103 16 147 -146 58 -210 80 -246 172 -273 59 -17 88 -12 104 17
13 26 7 63 -43 267 -22 89 -37 166 -34 170 4 4 73 8 153 10 l145 4 -7 35 c-11
59 -23 83 -43 83 -65 0 -289 24 -299 32 -6 5 -27 57 -46 116 -39 122 -124 315
-165 376 -15 22 -39 46 -52 53 -32 16 -87 16 -125 -1z m105 -451 c19 -57 31
-107 29 -110 -7 -6 -162 -24 -168 -19 -6 5 90 234 98 234 4 0 22 -47 41 -105z"/>
<path d="M3559 1160 c-43 -35 -76 -99 -84 -166 -4 -33 5 -131 29 -297 25 -173
33 -254 26 -266 -13 -25 -36 -30 -133 -28 l-82 2 5 40 c16 132 -10 427 -47
515 -30 75 -79 91 -139 45 -79 -61 -91 -151 -51 -385 14 -80 27 -160 29 -178
l5 -32 -109 0 -108 0 0 68 c0 99 -48 509 -66 565 -21 63 -49 82 -101 68 -131
-36 -160 -169 -96 -441 18 -74 35 -174 39 -221 6 -79 4 -91 -21 -155 -48 -120
-35 -244 28 -259 14 -4 47 5 87 24 36 17 80 34 99 37 19 4 183 1 365 -5 380
-14 404 -11 467 56 56 59 74 119 73 243 -2 156 -41 701 -53 731 -14 37 -58 69
-95 69 -20 0 -44 -11 -67 -30z"/>
<path d="M4011 1171 c-50 -14 -50 -45 0 -513 17 -166 35 -294 45 -318 41 -103
143 -120 189 -30 36 69 35 130 -5 405 -57 388 -58 395 -91 427 -15 15 -38 28
-51 28 -13 0 -32 2 -43 4 -11 3 -31 1 -44 -3z"/>
<path d="M843 1159 c-48 -14 -55 -35 -38 -120 25 -133 48 -280 44 -283 -2 -2
-70 -7 -150 -11 l-147 -7 -6 129 c-9 170 -12 189 -44 224 -21 24 -39 32 -74
36 -125 14 -143 -28 -114 -269 7 -62 8 -114 4 -123 -7 -11 -26 -15 -74 -15
-56 0 -68 -4 -89 -25 -47 -46 -29 -77 70 -120 114 -49 106 -40 130 -150 41
-182 67 -217 160 -219 70 -1 89 15 81 69 -3 22 -12 87 -20 144 -9 66 -12 111
-6 121 10 18 45 25 185 35 44 4 90 8 102 11 20 4 23 -3 37 -68 9 -40 20 -135
25 -210 9 -148 20 -181 67 -199 32 -12 94 4 117 29 38 42 45 179 21 409 l-7
62 31 -11 c27 -11 34 -9 65 18 20 16 46 36 58 45 37 26 20 63 -38 83 -25 9
-63 16 -84 16 -21 0 -42 7 -50 16 -7 8 -18 71 -25 140 -8 70 -21 140 -30 160
-31 66 -127 105 -201 83z"/>
<path d="M5613 1150 c-156 -33 -451 -241 -553 -391 -33 -47 -40 -67 -46 -128
-6 -67 -5 -74 17 -98 58 -61 186 -139 289 -175 92 -32 386 -88 458 -88 102 1
305 34 344 57 79 46 26 81 -147 94 -276 21 -434 53 -560 114 -82 39 -115 67
-115 98 0 76 207 266 363 335 39 17 60 20 107 15 32 -3 69 -3 83 1 35 8 87 54
87 75 0 23 -36 56 -84 76 -45 19 -184 28 -243 15z"/>
</g>
</svg>
