<svg aria-hidden="true" style="position: absolute; width: 0; height: 0; overflow: hidden;" version="1.1" xmlns="http://www.w3.org/2000/svg" xmlns:xlink="http://www.w3.org/1999/xlink">
<defs>
<symbol id="icon-logo" viewBox="0 0 78 32">
<path d="M4.966 0.074c-0.349 0.184-0.595 0.889-0.411 1.177 0.11 0.166-0.012 0.11 6.1 2.648l3.825 1.588-0.729 0.043c-0.87 0.055-1.563 0.184-2.207 0.398-2.618 0.877-4.573 3.084-5.143 5.812-0.135 0.656-0.135 1.962 0 2.728 0.116 0.668 0.441 1.667 0.699 2.188 0.84 1.649 2.618 3.145 4.402 3.697 0.233 0.074 0.478 0.153 0.546 0.184 0.067 0.025-1.257 0.067-2.943 0.092-8.031 0.116-8.576 0.129-8.748 0.215-0.233 0.11-0.38 0.448-0.337 0.766 0.055 0.362 0.153 0.558 0.337 0.638 0.116 0.055 2.47 0.067 9.6 0.037 12.622-0.049 31.761-0.141 38.872-0.19l5.762-0.043 2.654 1.085c1.459 0.595 2.679 1.067 2.71 1.048 0.037-0.025 0.061-0.006 0.061 0.031 0 0.043 0.043 0.055 0.104 0.037 0.061-0.025 0.086-0.025 0.061 0-0.074 0.074 0.631 0.331 0.785 0.294 0.080-0.018 0.159-0.006 0.178 0.025 0.025 0.037-0.018 0.049-0.098 0.031-0.245-0.061-0.086 0.031 0.441 0.257 0.282 0.123 0.546 0.208 0.589 0.19s0.153-0.006 0.251 0.031c0.166 0.055 0.159 0.055-0.037 0.025-0.282-0.043-0.233-0.006 0.239 0.172 0.221 0.086 0.638 0.251 0.938 0.374 0.294 0.129 0.57 0.208 0.613 0.184 0.037-0.025 0.049-0.018 0.025 0.006-0.061 0.067 0.497 0.294 0.582 0.239 0.043-0.031 0.049-0.012 0.018 0.037-0.037 0.061-0.006 0.067 0.129 0.037 0.104-0.025 0.147-0.018 0.098 0.012-0.098 0.067-0.178 0.031 4.493 1.919 3.862 1.557 5.891 2.342 6.535 2.532 0.858 0.257 1.238-0.031 1.324-1.005 0.031-0.374 0.025-0.417-0.135-0.601-0.092-0.11-0.27-0.251-0.392-0.313s-1.533-0.638-3.133-1.281c-1.6-0.644-3.887-1.557-5.076-2.035-1.318-0.533-2.201-0.852-2.268-0.828-0.055 0.018-0.080 0.018-0.055-0.006 0.074-0.080-1.336-0.662-1.441-0.601-0.037 0.025-0.049 0.018-0.031-0.018 0.018-0.031-0.123-0.11-0.313-0.172-0.19-0.067-0.392-0.135-0.441-0.166-0.178-0.086-0.533-0.233-1.808-0.748-1.594-0.644-1.931-0.785-1.931-0.828 0-0.025 0.251-0.031 0.558-0.018 0.417 0.018 0.576 0 0.613-0.061 0.037-0.055 0.067-0.061 0.104-0.012 0.031 0.043 1.214 0.049 4.089 0.018 9.257-0.104 11.721-0.166 12.242-0.306 0.294-0.080 0.521-0.306 0.57-0.57 0.049-0.257-0.067-0.828-0.227-1.085-0.239-0.398-0.025-0.386-5.628-0.306-2.783 0.037-6.449 0.098-8.153 0.129s-4.53 0.074-6.284 0.092l-3.188 0.037-2.146-0.864c-1.177-0.478-5.002-2.011-8.49-3.415-3.488-1.398-7.326-2.936-8.521-3.421s-4.769-1.919-7.939-3.188c-5.284-2.121-10.158-4.077-19.034-7.638-1.839-0.742-3.421-1.355-3.525-1.373-0.098-0.018-0.251 0-0.337 0.043zM15.080 6.155c2.74 0.441 4.966 2.403 5.732 5.039 0.46 1.575 0.343 3.396-0.306 4.874-1.122 2.556-3.69 4.23-6.498 4.242-0.901 0.006-1.477-0.080-2.25-0.331-2.452-0.797-4.248-2.802-4.806-5.358-0.055-0.239-0.11-0.748-0.129-1.134-0.159-3.549 2.415-6.731 5.934-7.32 0.674-0.11 1.674-0.116 2.323-0.012zM20.077 7.804c1.839 0.766 11.715 4.861 14.161 5.867 0.472 0.196 1.907 0.791 3.188 1.318s2.618 1.079 2.973 1.226c0.356 0.147 1.459 0.601 2.452 1.012s2.894 1.189 4.218 1.735c1.318 0.546 2.403 1.012 2.403 1.036 0 0.031-0.46 0.049-1.024 0.049-0.57 0-4.659 0.055-9.091 0.123s-10.875 0.159-14.314 0.208c-3.439 0.055-6.915 0.11-7.718 0.129-0.809 0.018-1.459 0.018-1.441 0.006 0.012-0.012 0.239-0.098 0.503-0.184 2.274-0.76 4.12-2.648 4.825-4.935 0.582-1.882 0.46-3.746-0.362-5.548-0.264-0.576-0.895-1.514-1.349-1.998-0.386-0.411-0.429-0.466-0.294-0.411 0.037 0.018 0.435 0.184 0.87 0.368zM65.557 24.27c0.025 0.031-0.018 0.043-0.086 0.025-0.141-0.037-0.159-0.080-0.037-0.080 0.049 0 0.104 0.025 0.123 0.055zM60.665 24.374c0.11 0.086 0.11 0.086-0.037 0.018-0.19-0.086-0.221-0.116-0.147-0.116 0.037 0 0.116 0.043 0.184 0.098zM62.713 25.195c0.049 0.031 0.067 0.061 0.031 0.061-0.031 0-0.104-0.031-0.153-0.061s-0.061-0.061-0.031-0.061c0.037 0 0.104 0.031 0.153 0.061z"></path>
<path d="M13.64 7.933c-0.417 0.11-0.711 0.239-1.054 0.472-0.38 0.251-1.067 0.92-1.024 0.987 0.025 0.031-0.012 0.074-0.074 0.086-0.135 0.037-0.711 0.791-0.723 0.944-0.006 0.055-0.092 0.184-0.196 0.288-0.343 0.349-1.68 3.225-1.68 3.623 0 0.215 1.747 1.741 2.783 2.428 0.766 0.515 1.698 1.018 1.87 1.018 0.067 0 0.257 0.067 0.423 0.153 0.196 0.098 0.509 0.178 0.889 0.227 0.503 0.061 0.65 0.061 1.042-0.025 0.625-0.135 1.116-0.38 1.459-0.723 0.27-0.27 0.668-0.877 0.662-1.012 0-0.037-0.061 0.061-0.141 0.208-0.11 0.215-0.178 0.276-0.306 0.282-0.104 0-0.159-0.031-0.159-0.086 0-0.067-0.018-0.074-0.067-0.025s-0.049 0.104 0.006 0.202c0.074 0.141 0.049 0.221-0.055 0.159-0.037-0.025-0.043-0.086-0.025-0.141 0.031-0.074 0.018-0.086-0.049-0.049-0.061 0.037-0.049 0.006 0.025-0.11 0.116-0.178 0.092-0.448-0.031-0.374-0.043 0.025-0.049 0.012-0.025-0.031 0.061-0.092-0.38-0.815-0.466-0.766-0.037 0.025-0.049 0.012-0.025-0.025 0.067-0.116-0.717-1.208-0.828-1.146-0.031 0.025-0.037-0.006-0.018-0.055 0.018-0.055 0.006-0.098-0.031-0.098s-0.067-0.043-0.067-0.098c0-0.061-0.037-0.086-0.086-0.067s-0.135-0.018-0.196-0.086c-0.055-0.061-0.086-0.116-0.055-0.116 0.025 0 0.086 0.049 0.129 0.104 0.043 0.061 0.080 0.080 0.080 0.049 0-0.098-0.166-0.288-0.221-0.257-0.031 0.018-0.092-0.025-0.141-0.098-0.074-0.129-0.074-0.129 0.037-0.043 0.061 0.049 0.006-0.037-0.129-0.19-0.135-0.147-0.368-0.417-0.515-0.588-0.153-0.178-0.3-0.3-0.331-0.282-0.037 0.018-0.043 0.006-0.025-0.025 0.067-0.104-1.68-1.949-1.766-1.876-0.025 0.031-0.031 0.018-0.012-0.018 0.043-0.074-0.166-0.288-0.343-0.349-0.055-0.025-0.098-0.074-0.092-0.116 0.012-0.043-0.025-0.074-0.074-0.061s-0.074 0-0.049-0.025c0.067-0.061-0.074-0.215-0.159-0.166-0.037 0.018-0.049 0.012-0.018-0.012 0.025-0.031-0.018-0.116-0.092-0.196-0.104-0.11-0.147-0.123-0.221-0.067-0.055 0.049-0.043 0.006 0.031-0.129 0.061-0.116 0.141-0.202 0.172-0.196 0.080 0.018 0.558 0.484 1.349 1.3 0.337 0.349 0.631 0.631 0.662 0.619 0.025-0.006 0.037 0.012 0.031 0.037-0.012 0.031 0.129 0.208 0.313 0.398 0.178 0.19 0.368 0.398 0.417 0.472 0.049 0.067 0.116 0.11 0.147 0.086 0.031-0.018 0.049-0.006 0.043 0.025-0.025 0.080 0.877 1.122 0.938 1.079 0.025-0.012 0.067 0.006 0.092 0.043 0.025 0.049 0.018 0.055-0.025 0.031-0.141-0.086-0.074 0.055 0.129 0.27 0.104 0.116 0.276 0.319 0.374 0.454 0.135 0.178 0.19 0.215 0.233 0.153 0.043-0.067 0.049-0.055 0.025 0.025s0.055 0.245 0.251 0.503c0.245 0.331 0.306 0.38 0.386 0.319s0.080-0.061 0.018 0.025c-0.067 0.080-0.037 0.178 0.19 0.564 0.147 0.257 0.288 0.447 0.313 0.423 0.031-0.025 0.031-0.012 0.012 0.025s0 0.172 0.043 0.3c0.074 0.208 0.092 0.221 0.147 0.116 0.282-0.533 0.337-1.526 0.116-2.17-0.135-0.392-0.227-0.478-0.392-0.349-0.055 0.037-0.080 0.037-0.080-0.012 0-0.061 0.086-0.092 0.202-0.074 0.031 0.006 0.043-0.025 0.031-0.067-0.018-0.043-0.061-0.080-0.098-0.080-0.031 0-0.086-0.025-0.116-0.055s-0.018-0.037 0.031-0.012c0.196 0.116 0.031-0.11-0.337-0.46-0.233-0.215-0.331-0.337-0.233-0.276 0.135 0.080 0.159 0.086 0.092 0.018-0.049-0.055-0.239-0.178-0.417-0.276l-0.319-0.178 0.123-0.153c0.141-0.184 0.153-0.239 0.049-0.221-0.043 0.012-0.080-0.049-0.080-0.141-0.006-0.086 0.031-0.159 0.074-0.159 0.049 0 0.055 0.037 0.012 0.11-0.074 0.147-0.074 0.172 0.037 0.153 0.055-0.006 0.153-0.104 0.215-0.208 0.159-0.257 0.153-0.313 0-0.129-0.104 0.123-0.098 0.098 0.031-0.202 0.306-0.674 0.325-1.484 0.055-2.121-0.104-0.257-0.11-0.343-0.018-0.282 0.043 0.025 0.006-0.074-0.074-0.215-0.184-0.337-0.766-0.889-0.883-0.84-0.049 0.018-0.086 0-0.074-0.037 0.006-0.043-0.153-0.141-0.356-0.227-0.441-0.178-1.244-0.233-1.716-0.104zM14.179 8.012c-0.043 0.012-0.116 0.012-0.153 0-0.043-0.018-0.012-0.031 0.074-0.031s0.116 0.012 0.080 0.031zM13.554 8.343c0.129 0.104 0.239 0.172 0.239 0.153s0.067 0.037 0.153 0.123c0.086 0.086 0.184 0.135 0.215 0.116 0.037-0.025 0.055-0.006 0.049 0.037-0.012 0.049 0.043 0.086 0.123 0.092 0.074 0.006 0.159 0.031 0.184 0.055 0.025 0.031-0.012 0.031-0.074 0.006-0.116-0.043-0.123-0.037-0.006 0.086 0.067 0.074 0.153 0.11 0.208 0.092 0.049-0.018 0.080-0.018 0.055 0-0.043 0.049 0.012 0.11 0.631 0.638 0.251 0.221 0.533 0.478 0.631 0.57 0.141 0.135 0.19 0.159 0.233 0.098s0.055-0.061 0.031 0.012c-0.012 0.049 0.11 0.264 0.27 0.466 0.166 0.208 0.3 0.398 0.3 0.423s-0.074 0.11-0.159 0.196c-0.147 0.135-0.153 0.135-0.116 0.018 0.031-0.104 0.012-0.141-0.092-0.166-0.086-0.025-0.104-0.049-0.061-0.080 0.086-0.055-0.932-1.116-1.054-1.091-0.043 0.012-0.074-0.012-0.067-0.049 0.006-0.043-0.043-0.123-0.11-0.184-0.098-0.086-0.135-0.098-0.172-0.031-0.037 0.055-0.067 0.061-0.092 0.012-0.025-0.037-0.012-0.067 0.025-0.067s0.049-0.031 0.031-0.061c-0.025-0.037-0.067-0.043-0.104-0.025-0.037 0.025-0.049 0.018-0.031-0.018 0.055-0.086-0.429-0.466-0.521-0.411-0.037 0.025-0.049 0.018-0.031-0.018 0.043-0.067-0.319-0.386-0.828-0.754-0.343-0.239-0.374-0.368-0.116-0.423 0.012-0.006 0.129 0.080 0.257 0.184zM16.233 8.668c0.227 0.208 0.472 0.576 0.423 0.625-0.018 0.018-0.080-0.043-0.129-0.141-0.153-0.282-0.392-0.509-0.484-0.472-0.049 0.018-0.11 0.006-0.135-0.031-0.018-0.043 0-0.049 0.055-0.031 0.129 0.049 0.123-0.025-0.012-0.147-0.067-0.061-0.074-0.080-0.012-0.049 0.049 0.037 0.184 0.147 0.294 0.245zM13.536 8.742c0.012 0.006-0.025 0.025-0.080 0.049-0.055 0.018-0.080 0.012-0.061-0.025 0.055-0.086-0.049-0.074-0.153 0.012-0.074 0.067-0.074 0.061-0.012-0.018 0.055-0.074 0.055-0.11-0.006-0.178-0.061-0.061-0.006-0.037 0.313 0.159zM15.877 8.729c0 0.012-0.043 0.043-0.098 0.061-0.049 0.018-0.074 0.012-0.055-0.025 0.037-0.061 0.153-0.086 0.153-0.037zM14.008 9.183c-0.018 0.018-0.067 0-0.11-0.043-0.055-0.061-0.049-0.067 0.037-0.031 0.061 0.018 0.092 0.055 0.074 0.074zM12.236 9.68c0 0.067-0.031 0.104-0.080 0.086-0.061-0.025-0.067-0.055-0.012-0.116 0.092-0.11 0.092-0.11 0.092 0.031zM12.726 10.182c0 0.055-0.037 0.092-0.074 0.074-0.123-0.043-0.141-0.178-0.031-0.178 0.055 0 0.104 0.049 0.104 0.104zM10.949 10.575c-0.018 0.049 0.098 0.362 0.264 0.693 0.441 0.883 0.864 1.79 0.864 1.857 0 0.031 0.049 0.055 0.11 0.061 0.061 0 0.074 0.018 0.031 0.037-0.055 0.018-0.037 0.104 0.067 0.313 0.080 0.159 0.19 0.417 0.251 0.576 0.061 0.166 0.135 0.276 0.172 0.251s0.043-0.006 0.018 0.037c-0.031 0.043 0.031 0.27 0.135 0.515 0.27 0.638 0.49 1.232 0.662 1.747 0.276 0.846 0.325 1.048 0.264 1.085-0.074 0.049-0.362-0.245-0.362-0.374 0-0.196-0.65-1.974-0.772-2.115-0.049-0.055-0.074-0.11-0.055-0.129s-0.025-0.178-0.098-0.349c-0.098-0.215-0.153-0.288-0.196-0.239-0.031 0.055-0.037 0.031-0.012-0.049 0.043-0.159-0.086-0.466-0.172-0.411-0.037 0.018-0.043 0.006-0.018-0.037 0.061-0.098-0.018-0.325-0.098-0.276-0.037 0.025-0.049 0.012-0.025-0.025 0.018-0.037-0.129-0.429-0.337-0.883-0.208-0.447-0.417-0.907-0.466-1.024-0.074-0.166-0.104-0.196-0.153-0.123-0.049 0.067-0.055 0.061-0.025-0.025 0.037-0.116-0.202-0.668-0.276-0.619-0.025 0.012-0.067-0.006-0.092-0.043-0.031-0.049-0.018-0.055 0.037-0.025s0.061 0.012 0.037-0.080c-0.049-0.147 0.061-0.405 0.153-0.349 0.031 0.025 0.055 0.006 0.055-0.025 0-0.037 0.018-0.067 0.037-0.067s0.025 0.043 0 0.092zM16.84 10.679c-0.018 0.049-0.037 0.031-0.037-0.037-0.006-0.067 0.012-0.104 0.031-0.080 0.018 0.018 0.025 0.074 0.006 0.116zM11.218 10.887c0 0.018-0.043 0.006-0.092-0.037s-0.092-0.104-0.092-0.135c0-0.031 0.043-0.018 0.092 0.037 0.049 0.049 0.092 0.11 0.092 0.135zM13.229 10.82c-0.018 0.018-0.055-0.012-0.074-0.074-0.037-0.086-0.031-0.092 0.031-0.037 0.043 0.043 0.061 0.092 0.043 0.11zM11.617 11.77c0.018 0.031 0.006 0.061-0.025 0.061-0.037 0-0.067-0.031-0.067-0.061 0-0.037 0.012-0.061 0.025-0.061 0.018 0 0.049 0.025 0.067 0.061zM16.521 11.764c0.018 0.031 0.012 0.074-0.018 0.092s-0.055-0.006-0.055-0.055c0-0.104 0.018-0.116 0.074-0.037zM14.492 12.052c0.055 0.147 0.012 0.159-0.074 0.025-0.043-0.067-0.049-0.123-0.018-0.123s0.074 0.043 0.092 0.098zM13.977 12.371c0 0.086-0.092 0.049-0.092-0.037 0-0.025-0.025-0.086-0.061-0.135-0.049-0.080-0.043-0.080 0.049-0.006 0.055 0.043 0.104 0.123 0.104 0.178zM15.191 12.966c-0.018 0.018-0.055-0.012-0.074-0.074-0.037-0.086-0.031-0.092 0.031-0.037 0.043 0.043 0.061 0.092 0.043 0.11zM16.276 12.996c-0.018 0.031-0.006 0.061 0.037 0.061s0.061 0.018 0.037 0.037c-0.055 0.055-0.172-0.037-0.135-0.104 0.025-0.031 0.049-0.055 0.067-0.055s0.012 0.025-0.006 0.061zM16.742 13.223c0.080 0.098 0.074 0.104-0.018 0.025-0.061-0.043-0.11-0.092-0.11-0.104 0-0.049 0.049-0.018 0.129 0.080zM12.487 13.744c-0.018 0.049-0.037 0.031-0.037-0.037-0.006-0.067 0.012-0.104 0.031-0.080 0.018 0.018 0.025 0.074 0.006 0.116zM17.257 13.738c-0.025 0.031-0.006 0.055 0.031 0.055s0.049 0.031 0.031 0.067c-0.055 0.080-0.092 0.043-0.123-0.123-0.012-0.074 0-0.116 0.037-0.098 0.031 0.025 0.043 0.067 0.025 0.098zM16 13.824c0.043 0.055 0.049 0.092 0.012 0.092-0.031 0-0.074-0.043-0.098-0.092-0.018-0.049-0.025-0.092-0.012-0.092s0.055 0.043 0.098 0.092zM12.628 13.983c0 0.037-0.025 0.043-0.061 0.025-0.031-0.018-0.061-0.067-0.061-0.098 0-0.037 0.031-0.043 0.061-0.025 0.037 0.018 0.061 0.067 0.061 0.098zM17.796 14.756c-0.018 0.043-0.037 0.080-0.049 0.080s-0.031-0.037-0.049-0.080c-0.018-0.049 0.006-0.086 0.049-0.086s0.067 0.037 0.049 0.086zM9.692 14.878c0.080 0.098 0.074 0.104-0.018 0.025-0.061-0.043-0.11-0.092-0.11-0.104 0-0.049 0.049-0.018 0.129 0.080zM13.057 15.050c0 0.031-0.031 0.018-0.061-0.031s-0.061-0.123-0.061-0.153c0-0.037 0.031-0.018 0.061 0.031s0.061 0.116 0.061 0.153zM17.882 15.031c-0.018 0.049-0.037 0.031-0.037-0.037-0.006-0.067 0.012-0.104 0.031-0.080 0.018 0.018 0.025 0.074 0.006 0.116zM12.365 15.093c-0.018 0.049-0.037 0.031-0.037-0.037-0.006-0.067 0.012-0.104 0.031-0.080 0.018 0.018 0.025 0.074 0.006 0.116zM17.943 15.583c-0.012 0.080-0.025 0.018-0.025-0.135s0.012-0.215 0.025-0.141c0.012 0.080 0.012 0.202 0 0.276zM12.874 15.908c0 0.031-0.031 0.018-0.061-0.031s-0.061-0.123-0.061-0.153c0-0.037 0.031-0.018 0.061 0.031s0.061 0.116 0.061 0.153zM17.49 15.798c-0.018 0.043-0.037 0.080-0.049 0.080s-0.031-0.037-0.049-0.080c-0.018-0.049 0.006-0.086 0.049-0.086s0.067 0.037 0.049 0.086zM16.975 16.086c-0.018 0.018-0.067-0.031-0.11-0.104-0.080-0.129-0.074-0.129 0.031-0.031 0.061 0.061 0.098 0.123 0.080 0.135zM12.959 16.092c0.018 0.049 0.006 0.092-0.025 0.092-0.037 0-0.061-0.043-0.061-0.092s0.012-0.092 0.025-0.092c0.012 0 0.037 0.043 0.061 0.092zM16.742 16.141c-0.061 0.055-0.067 0.049-0.031-0.037 0.018-0.061 0.055-0.092 0.074-0.074s0 0.067-0.043 0.11zM11.648 16.306c-0.049 0.031-0.135 0.055-0.184 0.055-0.061 0-0.049-0.018 0.031-0.055 0.166-0.074 0.264-0.074 0.153 0zM13.002 16.472c-0.074 0.123-0.086 0.086-0.031-0.074 0.025-0.055 0.055-0.086 0.067-0.067 0.018 0.012 0 0.080-0.037 0.141zM14.081 17.606c-0.018 0.049-0.037 0.031-0.037-0.037-0.006-0.067 0.012-0.104 0.031-0.080 0.018 0.018 0.025 0.074 0.006 0.116z"></path>
<path d="M16.797 9.471c0 0.031 0.031 0.104 0.061 0.153s0.061 0.061 0.061 0.031c0-0.037-0.031-0.104-0.061-0.153s-0.061-0.067-0.061-0.031z"></path>
<path d="M16.932 9.808c0 0.049 0.025 0.159 0.049 0.245 0.037 0.123 0.049 0.129 0.049 0.031 0-0.067-0.018-0.178-0.049-0.245-0.031-0.074-0.049-0.086-0.049-0.031z"></path>
<path d="M17.061 10.605c0 0.221 0.012 0.306 0.025 0.196 0.012-0.104 0.012-0.288 0-0.398-0.012-0.104-0.025-0.018-0.025 0.202z"></path>
<path d="M16.938 11.292c-0.043 0.147-0.086 0.319-0.11 0.386-0.025 0.080-0.006 0.074 0.049-0.031 0.092-0.153 0.202-0.613 0.153-0.613-0.012 0-0.055 0.116-0.092 0.257z"></path>
<path d="M17.349 13.517c0.153 0.166 0.325 0.374 0.386 0.46 0.104 0.147 0.104 0.147 0-0.049-0.055-0.11-0.233-0.313-0.38-0.46l-0.276-0.257 0.27 0.306z"></path>
<path d="M17.913 14.351c0.037 0.098 0.074 0.172 0.086 0.159 0.031-0.031-0.080-0.349-0.123-0.349-0.018 0 0 0.086 0.037 0.19z"></path>
<path d="M18.097 14.958c0 0.086 0.012 0.116 0.031 0.074 0.012-0.037 0.012-0.11 0-0.153-0.018-0.037-0.031-0.006-0.031 0.080z"></path>
<path d="M18.164 15.448c0 0.153 0.012 0.215 0.025 0.135 0.012-0.074 0.012-0.196 0-0.276-0.012-0.074-0.025-0.012-0.025 0.141z"></path>
<path d="M18.097 15.939c0 0.086 0.012 0.116 0.031 0.074 0.012-0.037 0.012-0.11 0-0.153-0.018-0.037-0.031-0.006-0.031 0.080z"></path>
<path d="M18.029 16.221c0 0.067 0.018 0.086 0.037 0.037 0.018-0.043 0.012-0.098-0.006-0.116-0.018-0.025-0.037 0.012-0.031 0.080z"></path>
<path d="M50.636 23.767c-0.166 0.061-0.435 0.349-0.564 0.601-0.208 0.398-0.208 0.858 0.012 2.409 0.257 1.815 0.288 1.729-0.558 1.729h-0.619l0.049-0.264c0.067-0.38 0.049-1.367-0.037-1.986-0.141-1.067-0.356-1.551-0.687-1.551-0.233 0-0.57 0.276-0.717 0.588-0.184 0.38-0.172 0.779 0.049 2.078 0.092 0.57 0.159 1.061 0.147 1.091-0.012 0.025-0.3 0.043-0.638 0.043h-0.607v-0.202c0-0.405-0.362-3.451-0.435-3.66-0.104-0.3-0.233-0.429-0.435-0.429-0.497 0-0.852 0.374-0.962 1.018-0.074 0.398-0.055 0.552 0.202 1.606 0.086 0.349 0.184 0.901 0.221 1.226 0.061 0.582 0.061 0.607-0.123 1.116-0.282 0.797-0.233 1.385 0.123 1.533 0.159 0.067 0.227 0.055 0.576-0.11 0.215-0.098 0.478-0.202 0.582-0.227 0.11-0.025 1.097-0.006 2.207 0.031 2.188 0.080 2.372 0.061 2.759-0.227 0.116-0.092 0.276-0.313 0.368-0.503 0.141-0.3 0.159-0.423 0.159-0.987 0-0.92-0.221-4.156-0.3-4.438-0.098-0.337-0.497-0.588-0.772-0.484z"></path>
<path d="M53.977 24.074c-0.319 0.080-0.343 0.398-0.153 2.164 0.061 0.625 0.159 1.545 0.215 2.054 0.11 1.103 0.208 1.434 0.497 1.686 0.503 0.435 0.987 0.116 1.128-0.748 0.049-0.337 0.043-0.546-0.061-1.195-0.061-0.429-0.208-1.379-0.313-2.103-0.202-1.355-0.264-1.594-0.503-1.741-0.147-0.098-0.619-0.166-0.809-0.116z"></path>
<path d="M42.434 24.527c-0.405 0.159-1.067 0.944-1.453 1.716-0.129 0.251-0.239 0.466-0.251 0.478-0.031 0.037-0.625-0.472-1.398-1.208l-0.736-0.699-0.607 0.025c-0.546 0.018-0.619 0.031-0.717 0.159-0.11 0.135-0.11 0.147-0.006 0.398 0.086 0.202 0.276 0.392 0.932 0.92 0.454 0.362 1.103 0.858 1.453 1.097 0.699 0.484 0.668 0.405 0.398 1.061-0.999 2.421-0.975 3.525 0.074 3.525 0.343 0 0.521-0.086 0.521-0.251 0-0.067 0.153-0.533 0.343-1.024 0.19-0.497 0.343-0.975 0.343-1.067-0.006-0.098 0.025-0.172 0.055-0.172s0.11-0.123 0.178-0.276c0.129-0.294 0.196-0.325 0.46-0.19 0.294 0.153 0.736-0.11 0.662-0.398-0.018-0.061-0.141-0.215-0.276-0.337-0.172-0.153-0.227-0.239-0.184-0.282 0.037-0.037 0.049-0.147 0.031-0.239-0.025-0.129 0.031-0.288 0.245-0.65 0.147-0.264 0.349-0.625 0.435-0.803 0.092-0.184 0.331-0.509 0.533-0.723 0.196-0.215 0.362-0.417 0.362-0.448 0-0.166-0.135-0.368-0.349-0.515-0.19-0.135-0.306-0.166-0.576-0.159-0.178 0-0.398 0.025-0.472 0.061z"></path>
<path d="M10.881 24.791c-0.098 0.043-0.233 0.135-0.288 0.196-0.055 0.067-0.325 0.656-0.595 1.312-0.975 2.385-1.042 2.507-1.459 2.636-0.276 0.092-0.429 0.215-0.546 0.448-0.086 0.153-0.080 0.184 0.031 0.337 0.196 0.282 0.208 0.441 0.049 0.76-0.257 0.509-0.067 0.809 0.515 0.809 0.38 0 0.515-0.123 0.913-0.821 0.472-0.828 0.503-0.84 1.949-1.122 0.607-0.123 0.631-0.098 0.901 0.895 0.356 1.287 0.49 1.508 1.054 1.674 0.362 0.104 0.539 0.074 0.638-0.104 0.080-0.159 0.043-0.386-0.264-1.637-0.135-0.546-0.227-1.018-0.208-1.042 0.025-0.025 0.447-0.049 0.938-0.061l0.889-0.025-0.043-0.215c-0.067-0.362-0.141-0.509-0.264-0.509-0.398 0-1.772-0.147-1.833-0.196-0.037-0.031-0.166-0.349-0.282-0.711-0.239-0.748-0.76-1.931-1.011-2.305-0.092-0.135-0.239-0.282-0.319-0.325-0.196-0.098-0.533-0.098-0.766 0.006zM11.525 27.556c0.116 0.349 0.19 0.656 0.178 0.674-0.043 0.037-0.993 0.147-1.030 0.116s0.552-1.434 0.601-1.434c0.025 0 0.135 0.288 0.251 0.644z"></path>
<path d="M21.818 24.889c-0.264 0.215-0.466 0.607-0.515 1.018-0.025 0.202 0.031 0.803 0.178 1.821 0.153 1.061 0.202 1.557 0.159 1.631-0.080 0.153-0.221 0.184-0.815 0.172l-0.503-0.012 0.031-0.245c0.098-0.809-0.061-2.618-0.288-3.157-0.184-0.46-0.484-0.558-0.852-0.276-0.484 0.374-0.558 0.926-0.313 2.36 0.086 0.49 0.166 0.981 0.178 1.091l0.031 0.196h-1.33v-0.417c0-0.607-0.294-3.12-0.405-3.464-0.129-0.386-0.3-0.503-0.619-0.417-0.803 0.221-0.981 1.036-0.588 2.703 0.11 0.454 0.215 1.067 0.239 1.355 0.037 0.484 0.025 0.558-0.129 0.95-0.294 0.736-0.215 1.496 0.172 1.588 0.086 0.025 0.288-0.031 0.533-0.147 0.221-0.104 0.49-0.208 0.607-0.227 0.116-0.025 1.122-0.006 2.238 0.031 2.329 0.086 2.477 0.067 2.863-0.343 0.343-0.362 0.454-0.73 0.448-1.49-0.012-0.956-0.251-4.297-0.325-4.481-0.086-0.227-0.356-0.423-0.582-0.423-0.123 0-0.27 0.067-0.411 0.184z"></path>
<path d="M24.588 24.821c-0.306 0.086-0.306 0.276 0 3.145 0.104 1.018 0.215 1.802 0.276 1.949 0.251 0.631 0.877 0.736 1.159 0.184 0.221-0.423 0.215-0.797-0.031-2.483-0.349-2.379-0.356-2.421-0.558-2.618-0.092-0.092-0.233-0.172-0.313-0.172s-0.196-0.012-0.264-0.025c-0.067-0.018-0.19-0.006-0.27 0.018z"></path>
<path d="M5.168 24.895c-0.294 0.086-0.337 0.215-0.233 0.736 0.153 0.815 0.294 1.716 0.27 1.735-0.012 0.012-0.429 0.043-0.92 0.067l-0.901 0.043-0.037-0.791c-0.055-1.042-0.074-1.159-0.27-1.373-0.129-0.147-0.239-0.196-0.454-0.221-0.766-0.086-0.877 0.172-0.699 1.649 0.043 0.38 0.049 0.699 0.025 0.754-0.043 0.067-0.159 0.092-0.454 0.092-0.343 0-0.417 0.025-0.546 0.153-0.288 0.282-0.178 0.472 0.429 0.736 0.699 0.3 0.65 0.245 0.797 0.92 0.251 1.116 0.411 1.33 0.981 1.343 0.429 0.006 0.546-0.092 0.497-0.423-0.018-0.135-0.074-0.533-0.123-0.883-0.055-0.405-0.074-0.68-0.037-0.742 0.061-0.11 0.276-0.153 1.134-0.215 0.27-0.025 0.552-0.049 0.625-0.067 0.123-0.025 0.141 0.018 0.227 0.417 0.055 0.245 0.123 0.828 0.153 1.287 0.055 0.907 0.123 1.11 0.411 1.22 0.196 0.074 0.576-0.025 0.717-0.178 0.233-0.257 0.276-1.097 0.129-2.507l-0.043-0.38 0.19 0.067c0.166 0.067 0.208 0.055 0.398-0.11 0.123-0.098 0.282-0.221 0.356-0.276 0.227-0.159 0.123-0.386-0.233-0.509-0.153-0.055-0.386-0.098-0.515-0.098s-0.257-0.043-0.306-0.098c-0.043-0.049-0.11-0.435-0.153-0.858-0.049-0.429-0.129-0.858-0.184-0.981-0.19-0.405-0.779-0.644-1.232-0.509z"></path>
<path d="M34.409 24.95c-0.956 0.202-2.765 1.477-3.39 2.397-0.202 0.288-0.245 0.411-0.282 0.785-0.037 0.411-0.031 0.454 0.104 0.601 0.356 0.374 1.14 0.852 1.772 1.073 0.564 0.196 2.366 0.539 2.808 0.539 0.625-0.006 1.87-0.208 2.109-0.349 0.484-0.282 0.159-0.497-0.901-0.576-1.692-0.129-2.661-0.325-3.433-0.699-0.503-0.239-0.705-0.411-0.705-0.601 0-0.466 1.269-1.631 2.225-2.054 0.239-0.104 0.368-0.123 0.656-0.092 0.196 0.018 0.423 0.018 0.509-0.006 0.215-0.049 0.533-0.331 0.533-0.46 0-0.141-0.221-0.343-0.515-0.466-0.276-0.116-1.128-0.172-1.49-0.092z"></path>
</symbol>
<symbol id="icon-align-justify" viewBox="0 0 64 32">
<path fill="none" stroke="#7e847f" style="stroke: var(--color1, #7e847f)" stroke-linejoin="round" stroke-linecap="round" stroke-miterlimit="4" stroke-width="4" d="M56 20.667h-48"></path>
<path fill="none" stroke="#7e847f" style="stroke: var(--color1, #7e847f)" stroke-linejoin="round" stroke-linecap="round" stroke-miterlimit="4" stroke-width="4" d="M56 10h-48"></path>
</symbol>
</defs>
</svg>
